# xmcd CD database generated by RipIT
#
# Track frame offsets:
# 150
# 16960
# 38495
# 55393
# 72128
# 86482
# 101038
# 116995
# 129243
# 141881
# 152691
# 168508
# 192968
# 210050
#
# Disc length: 3093 seconds
#
# Revision: 0
# Processed by: cddbd v1.5.2PL0 Copyright (c) Steve Scherf et al.
# Submitted via: RipIT 3.9.0 www.suwald.com/ripit/ripit.html on 2015-12-04 at 10:09
#
DISCID=b60c130e
DTITLE=Gruff! - Johnson’s Business
DYEAR=2015
DGENRE=Blues
TTITLE0=Berta, Berta
TTITLE1=The Good Guy
TTITLE2=Mr. Johnson
TTITLE3=Teeth in the Ground
TTITLE4=Let Me PLay My Music
TTITLE5=All I Wanna Do
TTITLE6=Leave This Time
TTITLE7=The Morning
TTITLE8=The Mall
TTITLE9=Good Advice
TTITLE10=Two-Foot Machete
TTITLE11=Well Oh Well
TTITLE12=Daydreaming
TTITLE13=Untitled
EXTD=
EXTT0=
EXTT1=
EXTT2=
EXTT3=
EXTT4=
EXTT5=
EXTT6=
EXTT7=
EXTT8=
EXTT9=
EXTT10=
EXTT11=
EXTT12=
EXTT13=
PLAYORDER=
